<?xml version="1.0" encoding="UTF-8" standalone="no"?>
<svg
   xmlns:dc="http://purl.org/dc/elements/1.1/"
   xmlns:cc="http://creativecommons.org/ns#"
   xmlns:rdf="http://www.w3.org/1999/02/22-rdf-syntax-ns#"
   xmlns:svg="http://www.w3.org/2000/svg"
   xmlns="http://www.w3.org/2000/svg"
   height="1015.6897"
   width="1250"
   version="1.1"
   viewBox="0 0 1250 1015.6897"
   data-name="Logo — FIXED"
   id="Logo_FIXED">
  <metadata
     id="metadata23">
    <rdf:RDF>
      <cc:Work
         rdf:about="">
        <dc:format>image/svg+xml</dc:format>
        <dc:type
           rdf:resource="http://purl.org/dc/dcmitype/StillImage" />
        <dc:title>Twitter_Logo_Blue</dc:title>
      </cc:Work>
    </rdf:RDF>
  </metadata>
  <defs
     id="defs12">
    <style
       id="style10">.cls-1{fill:none;}.cls-2{fill:#1da1f2;}</style>
  </defs>
  <title
     id="title14">Twitter_Logo_Blue</title>
  <rect
     y="307.82382"
     x="425"
     id="rect16"
     height="400"
     width="400"
     class="cls-1" />
  <path
     style="stroke-width:5"
     id="path18"
     d="m 393.1,1015.6897 c 471.7,0 729.7,-390.80001 729.7,-729.70002 0,-11.1 0,-22.15 -0.75,-33.15 A 521.8,521.8 0 0 0 1250,120.08969 a 511.9,511.9 0 0 1 -147.3,40.35 257.35,257.35 0 0 0 112.75,-141.850001 513.95,513.95 0 0 1 -162.85,62.25 A 256.7,256.7 0 0 0 615.55,314.73968 728.1,728.1 0 0 1 87,46.789689 256.65,256.65 0 0 0 166.4,389.13968 254.55,254.55 0 0 1 50,357.03968 c 0,1.05 0,2.15 0,3.25 a 256.55,256.55 0 0 0 205.75,251.40001 256.05,256.05 0 0 1 -115.8,4.4 256.75,256.75 0 0 0 239.6,178.1 514.6,514.6 0 0 1 -318.5,110 522.05,522.05 0 0 1 -61.05,-3.7 726.05,726.05 0 0 0 393.1,115.00001"
     class="cls-2" />
</svg>
