<?xml version="1.0" encoding="UTF-8" standalone="no"?>
<svg
   id="svg8"
   version="1.1"
   viewBox="0 0 3033.5794 264.58333"
   height="1000"
   width="11465.497"
   sodipodi:docname="desktop_logo.svg"
   inkscape:version="1.2.1 (9c6d41e, 2022-07-14)"
   xmlns:inkscape="http://www.inkscape.org/namespaces/inkscape"
   xmlns:sodipodi="http://sodipodi.sourceforge.net/DTD/sodipodi-0.dtd"
   xmlns="http://www.w3.org/2000/svg"
   xmlns:svg="http://www.w3.org/2000/svg"
   xmlns:rdf="http://www.w3.org/1999/02/22-rdf-syntax-ns#"
   xmlns:cc="http://creativecommons.org/ns#"
   xmlns:dc="http://purl.org/dc/elements/1.1/">
  <sodipodi:namedview
     id="namedview20"
     pagecolor="#ffffff"
     bordercolor="#000000"
     borderopacity="0.25"
     inkscape:showpageshadow="2"
     inkscape:pageopacity="0.0"
     inkscape:pagecheckerboard="0"
     inkscape:deskcolor="#d1d1d1"
     showgrid="false"
     inkscape:zoom="0.095329491"
     inkscape:cx="5732.7485"
     inkscape:cy="503.5168"
     inkscape:window-width="1512"
     inkscape:window-height="916"
     inkscape:window-x="0"
     inkscape:window-y="38"
     inkscape:window-maximized="1"
     inkscape:current-layer="svg8" />
  <defs
     id="defs2" />
  <metadata
     id="metadata5">
    <rdf:RDF>
      <cc:Work
         rdf:about="">
        <dc:format>image/svg+xml</dc:format>
        <dc:type
           rdf:resource="http://purl.org/dc/dcmitype/StillImage" />
        <dc:title />
      </cc:Work>
    </rdf:RDF>
  </metadata>
  <g
     transform="matrix(59.715753,0,0,59.715753,-1083.4144,-5349.3592)"
     id="layer1">
    <g
       transform="matrix(0.28917379,0,0,0.28917379,12.896418,63.676074)"
       style="font-size:20.4293px;line-height:1.25;font-family:'Green Screen';-inkscape-font-specification:'Green Screen';stroke-width:0.510733"
       id="text12"
       aria-label="thtmnisamnstr">
      <path
         id="path905"
         style="fill:#33ff00;fill-opacity:1;stroke-width:0.510733"
         d="m 18.142857,94.687694 h 1.705766 v -1.705767 h 1.695792 v -1.695792 h 1.705767 v 3.401559 h 5.107325 v 1.705766 h -5.107325 v 6.80312 h 1.705766 v -1.69579 h 3.401559 v 1.69579 H 26.65174 v 1.70576 h -5.107325 v -1.70576 h -1.695792 v -6.80312 h -1.705766 z" />
      <path
         id="path907"
         style="fill:#33ff00;fill-opacity:1;stroke-width:0.510733"
         d="m 31.788991,103.19658 h 1.705767 V 91.286135 h -1.705767 v -1.705766 h 5.107325 v 6.813091 h 1.705767 v -1.705766 h 3.401558 v 1.705766 h 1.705767 v 8.50888 h -3.411534 v -8.50888 h -1.695791 v 1.695792 h -1.705767 v 6.813088 h -5.107325 z" />
      <path
         id="path909"
         style="fill:#33ff00;fill-opacity:1;stroke-width:0.510733"
         d="m 45.435125,94.687694 h 1.705767 v -1.705767 h 1.695792 v -1.695792 h 1.705766 v 3.401559 h 5.107326 V 96.39346 H 50.54245 v 6.80312 h 1.705767 v -1.69579 h 3.401559 v 1.69579 h -1.705767 v 1.70576 h -5.107325 v -1.70576 h -1.695792 v -6.80312 h -1.705767 z" />
      <path
         id="path911"
         style="fill:#33ff00;fill-opacity:1;stroke-width:0.510733"
         d="m 59.081261,94.687694 h 10.21465 v 1.705766 h 1.705767 v 8.50888 h -3.411534 v -8.50888 h -1.695791 v 6.80312 h -1.705767 v -6.80312 h -1.705767 v 8.50888 h -3.401558 z" />
      <path
         id="path913"
         style="fill:#33ff00;fill-opacity:1;stroke-width:0.510733"
         d="m 72.727394,94.687694 h 8.508883 v 1.705766 h 1.705767 v 8.50888 h -3.401558 v -8.50888 h -3.411534 v 8.50888 h -3.401558 z" />
      <path
         id="path915"
         style="fill:#33ff00;fill-opacity:1;stroke-width:0.510733"
         d="m 91.480856,89.580369 h 3.401559 v 3.401558 h -3.401559 z m -3.401558,5.107325 h 6.803117 v 8.508886 h 3.411533 v 1.70576 h -10.21465 v -1.70576 h 3.401558 v -6.80312 h -3.401558 z" />
      <path
         id="path917"
         style="fill:#33ff00;fill-opacity:1;stroke-width:0.510733"
         d="m 100.01966,101.50079 h 3.40156 v 1.69579 h 3.41154 v -1.69579 h -1.70577 v -1.705771 h -3.40156 v -1.705767 h -1.70577 V 96.39346 h 1.70577 v -1.705766 h 6.80312 v 1.705766 h 1.70576 v 1.695792 h -3.40155 V 96.39346 h -3.41154 v 1.695792 h 1.70577 v 1.705767 h 3.40156 v 1.705771 h 1.70576 v 1.69579 h -1.70576 v 1.70576 h -6.80312 v -1.70576 h -1.70577 z" />
      <path
         id="path919"
         style="fill:#33ff00;fill-opacity:1;stroke-width:0.510733"
         d="m 117.06736,99.795019 v 3.401561 h 3.41153 v -3.401561 z m -3.40156,0 h 1.70576 v -1.705767 h 5.10733 V 96.39346 h -5.10733 v -1.705766 h 6.80312 v 1.705766 h 1.70577 v 6.80312 h 1.70577 v 1.70576 h -3.41154 v -1.70576 h -1.69579 v 1.70576 h -5.10733 v -1.70576 h -1.70576 z" />
      <path
         id="path921"
         style="fill:#33ff00;fill-opacity:1;stroke-width:0.510733"
         d="m 127.31193,94.687694 h 10.21465 v 1.705766 h 1.70577 v 8.50888 h -3.41154 v -8.50888 h -1.69579 v 6.80312 h -1.70576 v -6.80312 h -1.70577 v 8.50888 h -3.40156 z" />
      <path
         id="path923"
         style="fill:#33ff00;fill-opacity:1;stroke-width:0.510733"
         d="m 140.95807,94.687694 h 8.50888 v 1.705766 h 1.70577 v 8.50888 h -3.40156 v -8.50888 h -3.41154 v 8.50888 h -3.40155 z" />
      <path
         id="path925"
         style="fill:#33ff00;fill-opacity:1;stroke-width:0.510733"
         d="m 154.60421,101.50079 h 3.40155 v 1.69579 h 3.41154 v -1.69579 h -1.70577 v -1.705771 h -3.40156 v -1.705767 h -1.70576 V 96.39346 h 1.70576 v -1.705766 h 6.80312 v 1.705766 h 1.70577 v 1.695792 H 161.4173 V 96.39346 h -3.41154 v 1.695792 h 1.70577 v 1.705767 h 3.40156 v 1.705771 h 1.70577 v 1.69579 h -1.70577 v 1.70576 h -6.80312 v -1.70576 h -1.70576 z" />
      <path
         id="path927"
         style="fill:#33ff00;fill-opacity:1;stroke-width:0.510733"
         d="m 168.25034,94.687694 h 1.70577 v -1.705767 h 1.69579 v -1.695792 h 1.70576 v 3.401559 h 5.10733 v 1.705766 h -5.10733 v 6.80312 h 1.70577 v -1.69579 h 3.40156 v 1.69579 h -1.70577 v 1.70576 h -5.10732 v -1.70576 h -1.69579 v -6.80312 h -1.70577 z" />
      <path
         id="path929"
         style="fill:#33ff00;fill-opacity:1;stroke-width:0.510733"
         d="m 181.89647,103.19658 h 1.70577 v -6.80312 h -1.70577 v -1.705766 h 5.10733 v 3.401558 h 1.70576 v -3.401558 h 3.40156 v 1.705766 h 1.70577 v 3.401559 h -3.41153 v -1.705767 h -1.6958 v 1.705767 h -1.70576 v 3.401561 h 1.70576 v 1.70576 h -6.81309 z" />
    </g>
  </g>
</svg>
