<?xml version="1.0" encoding="UTF-8" standalone="no"?>
<svg
   xmlns:dc="http://purl.org/dc/elements/1.1/"
   xmlns:cc="http://creativecommons.org/ns#"
   xmlns:rdf="http://www.w3.org/1999/02/22-rdf-syntax-ns#"
   xmlns:svg="http://www.w3.org/2000/svg"
   xmlns="http://www.w3.org/2000/svg"
   xmlns:sodipodi="http://sodipodi.sourceforge.net/DTD/sodipodi-0.dtd"
   xmlns:inkscape="http://www.inkscape.org/namespaces/inkscape"
   inkscape:version="1.0 (4035a4f, 2020-05-01)"
   sodipodi:docname="devcommunity-logo.svg"
   id="svg134"
   class="logo"
   aria-labelledby="arttjpa61oqv77h4bg9q8gnecr1pyx1w"
   role="img"
   viewBox="0 0 6000.0001 4800"
   height="960"
   width="1200"
   version="1">
  <metadata
     id="metadata140">
    <rdf:RDF>
      <cc:Work
         rdf:about="">
        <dc:format>image/svg+xml</dc:format>
        <dc:type
           rdf:resource="http://purl.org/dc/dcmitype/StillImage" />
        <dc:title>App logo</dc:title>
      </cc:Work>
    </rdf:RDF>
  </metadata>
  <defs
     id="defs138" />
  <sodipodi:namedview
     inkscape:current-layer="layer2"
     inkscape:window-maximized="1"
     inkscape:window-y="23"
     inkscape:window-x="39"
     inkscape:cy="480"
     inkscape:cx="600"
     inkscape:zoom="0.56979167"
     showgrid="false"
     id="namedview136"
     inkscape:window-height="755"
     inkscape:window-width="1241"
     inkscape:pageshadow="2"
     inkscape:pageopacity="0"
     guidetolerance="10"
     gridtolerance="10"
     objecttolerance="10"
     borderopacity="1"
     bordercolor="#666666"
     pagecolor="#ffffff" />
  <title
     id="arttjpa61oqv77h4bg9q8gnecr1pyx1w">App logo</title>
  <g
     inkscape:label="Layer 1"
     id="layer1"
     inkscape:groupmode="layer" />
  <g
     inkscape:label="Layer 2"
     id="layer2"
     inkscape:groupmode="layer">
    <g
       transform="matrix(33.089581,0,0,33.089581,-7919.5613,-2977.0568)"
       id="g1002">
      <rect
         y="89.969612"
         x="239.33701"
         height="145.06078"
         width="181.32596"
         id="rect142"
         style="fill:#000000;fill-opacity:1;fill-rule:evenodd;stroke-width:3.62652" />
      <path
         style="fill:#ffffff;fill-opacity:1;stroke-width:1"
         id="path132"
         d="m 264.5,162.5 v 32 h 11.3 c 12.5,0 17.7,-1.6 21.5,-6.5 3.8,-4.8 4.4,-9 4,-28 -0.3,-16.8 -0.5,-18.2 -2.7,-21.8 -3.8,-6.2 -8,-7.7 -22.1,-7.7 h -12 z m 23.1,-19.1 c 2.3,1.9 2.4,2.3 2.4,18.5 0,15.7 -0.1,16.7 -2.2,18.8 -1.7,1.6 -3.5,2.2 -7,2.2 l -4.8,0.1 -0.3,-20.8 -0.2,-20.7 h 4.9 c 3.3,0 5.6,0.6 7.2,1.9 z m 23,-10.3 c -2,2.6 -2.1,3.9 -2.1,29.6 v 26.9 l 2.5,2.4 c 2.29999,2.4 2.89999,2.5 15.99999,2.5 h 13.5 v -10.9 l -10.2,-0.3 -10.3,-0.3 v -15 l 6.3,-0.3 6.2,-0.3 v -10.9 h -13 v -15 h 21 v -11 h -13.9 c -13.9,0 -14,0 -15.99999,2.6 z m 40.89999,11.6 c 2.1,7.9 5.5,20.8 7.6,28.8 3.2,12.3 4.3,15 7.00001,17.7 1.9,2 4.2,3.3 5.7,3.3 3.1,0 7.1,-3.1 8.5,-6.7 1,-2.6 15.2,-55.6 15.2,-56.8 0,-0.3 -2.8,-0.5 -6.2,-0.3 l -6.3,0.3 -5.6,21.5 c -3.5,13.6 -5.8,20.8 -6.2,19.5 -0.8,-2.5 -10.70001,-40.6 -10.70001,-41.1 0,-0.2 -2.9,-0.4 -6.4,-0.4 h -6.4 z" />
    </g>
  </g>
</svg>
